<svg width="121" height="19" viewBox="0 0 121 19" fill="none" xmlns="http://www.w3.org/2000/svg">
<path d="M26.912 14.198C25.676 14.198 24.596 13.922 23.672 13.37C22.748 12.806 22.028 12.026 21.512 11.03C20.996 10.022 20.738 8.84601 20.738 7.50201C20.738 6.15801 21.002 4.98201 21.53 3.97401C22.058 2.96601 22.79 2.18001 23.726 1.61601C24.674 1.05201 25.766 0.770015 27.002 0.770015C27.986 0.770015 28.874 0.956015 29.666 1.32801C30.458 1.68801 31.118 2.19801 31.646 2.85802C32.174 3.51802 32.516 4.29202 32.672 5.18002H30.782C30.542 4.32801 30.08 3.66201 29.396 3.18201C28.712 2.70201 27.896 2.46201 26.948 2.46201C26.072 2.46201 25.304 2.67201 24.644 3.09202C23.996 3.50002 23.492 4.08201 23.132 4.83802C22.772 5.58201 22.592 6.46401 22.592 7.48401C22.592 8.49201 22.772 9.37402 23.132 10.13C23.492 10.886 24.002 11.474 24.662 11.894C25.322 12.302 26.084 12.506 26.948 12.506C27.908 12.506 28.736 12.272 29.432 11.804C30.14 11.324 30.614 10.682 30.854 9.87801H32.726C32.546 10.742 32.18 11.498 31.628 12.146C31.088 12.794 30.41 13.298 29.594 13.658C28.79 14.018 27.896 14.198 26.912 14.198Z" fill="#0C0F18"/>
<path d="M33.575 9.59002C33.575 8.69002 33.773 7.89201 34.169 7.19601C34.565 6.50001 35.105 5.95401 35.789 5.55801C36.485 5.16201 37.277 4.96401 38.165 4.96401C39.053 4.96401 39.839 5.16201 40.523 5.55801C41.207 5.95401 41.747 6.50001 42.143 7.19601C42.539 7.89201 42.737 8.69002 42.737 9.59002C42.737 10.49 42.539 11.288 42.143 11.984C41.747 12.68 41.207 13.226 40.523 13.622C39.839 14.018 39.053 14.216 38.165 14.216C37.277 14.216 36.485 14.018 35.789 13.622C35.105 13.226 34.565 12.68 34.169 11.984C33.773 11.288 33.575 10.49 33.575 9.59002ZM35.285 9.59002C35.285 10.202 35.405 10.742 35.645 11.21C35.897 11.678 36.239 12.044 36.671 12.308C37.103 12.572 37.601 12.704 38.165 12.704C38.729 12.704 39.227 12.572 39.659 12.308C40.091 12.044 40.427 11.678 40.667 11.21C40.919 10.742 41.045 10.202 41.045 9.59002C41.045 8.96602 40.919 8.42601 40.667 7.97002C40.427 7.50201 40.091 7.13602 39.659 6.87201C39.227 6.60802 38.729 6.47602 38.165 6.47602C37.601 6.47602 37.103 6.60802 36.671 6.87201C36.239 7.13602 35.897 7.50201 35.645 7.97002C35.405 8.42601 35.285 8.96602 35.285 9.59002Z" fill="#0C0F18"/>
<path d="M44.16 17.942V5.19801H45.69L45.816 6.78201C46.104 6.17001 46.53 5.71401 47.094 5.41401C47.67 5.10201 48.306 4.94601 49.002 4.94601C49.842 4.94601 50.568 5.14401 51.18 5.54001C51.792 5.92401 52.26 6.46401 52.584 7.16001C52.92 7.84401 53.088 8.63602 53.088 9.53602C53.088 10.436 52.926 11.24 52.602 11.948C52.29 12.656 51.828 13.214 51.216 13.622C50.616 14.03 49.878 14.234 49.002 14.234C48.294 14.234 47.664 14.09 47.112 13.802C46.56 13.514 46.14 13.1 45.852 12.56V17.942H44.16ZM45.87 9.60802C45.87 10.196 45.978 10.73 46.194 11.21C46.422 11.678 46.74 12.044 47.148 12.308C47.568 12.572 48.066 12.704 48.642 12.704C49.218 12.704 49.71 12.572 50.118 12.308C50.526 12.032 50.838 11.66 51.054 11.192C51.282 10.724 51.396 10.196 51.396 9.60802C51.396 8.99602 51.282 8.45601 51.054 7.98801C50.838 7.52001 50.526 7.15401 50.118 6.89002C49.71 6.62601 49.218 6.49401 48.642 6.49401C48.066 6.49401 47.568 6.62601 47.148 6.89002C46.74 7.15401 46.422 7.52001 46.194 7.98801C45.978 8.45601 45.87 8.99602 45.87 9.60802Z" fill="#0C0F18"/>
<path d="M58.3009 14.216C57.4489 14.216 56.6929 14.024 56.0329 13.64C55.3729 13.244 54.8569 12.704 54.4849 12.02C54.1129 11.324 53.9269 10.52 53.9269 9.60802C53.9269 8.68402 54.1069 7.87402 54.4669 7.17802C54.8389 6.48202 55.3429 5.93602 55.9789 5.54001C56.6269 5.14401 57.3769 4.94601 58.2289 4.94601C59.0689 4.94601 59.7949 5.12601 60.4069 5.48601C61.0309 5.84601 61.5109 6.35002 61.8469 6.99801C62.1949 7.64602 62.3689 8.40801 62.3689 9.28401V9.91401L54.8269 9.93202L54.8629 8.79802H60.6769C60.6769 8.06602 60.4549 7.47801 60.0109 7.03401C59.5669 6.59001 58.9729 6.36801 58.2289 6.36801C57.6649 6.36801 57.1789 6.49401 56.7709 6.74601C56.3749 6.98601 56.0689 7.34602 55.8529 7.82601C55.6489 8.29402 55.5469 8.85801 55.5469 9.51801C55.5469 10.574 55.7869 11.39 56.2669 11.966C56.7469 12.53 57.4369 12.812 58.3369 12.812C58.9969 12.812 59.5369 12.68 59.9569 12.416C60.3769 12.152 60.6589 11.768 60.8029 11.264H62.3869C62.1709 12.2 61.7089 12.926 61.0009 13.442C60.2929 13.958 59.3929 14.216 58.3009 14.216Z" fill="#0C0F18"/>
<path d="M65.5008 14H63.8088V5.19801H65.3388L65.5188 6.54801C65.7948 6.04401 66.1908 5.65401 66.7068 5.37801C67.2348 5.09001 67.8108 4.94601 68.4348 4.94601C69.5868 4.94601 70.4388 5.27602 70.9908 5.93602C71.5428 6.59602 71.8188 7.49002 71.8188 8.61801V14H70.1268V8.99601C70.1268 8.10801 69.9348 7.47201 69.5508 7.08802C69.1668 6.69201 68.6508 6.49401 68.0028 6.49401C67.2108 6.49401 66.5928 6.75201 66.1488 7.26801C65.7168 7.78401 65.5008 8.47402 65.5008 9.33802V14Z" fill="#0C0F18"/>
<path d="M75.4043 13.982H73.7123V0.752014H75.4043V6.54801C75.6803 6.06801 76.0763 5.68402 76.5923 5.39602C77.1083 5.09602 77.7083 4.94601 78.3923 4.94601C79.5083 4.94601 80.3423 5.27602 80.8943 5.93602C81.4463 6.59602 81.7223 7.49002 81.7223 8.61801V14H80.0303V8.99601C80.0303 8.39601 79.9403 7.91602 79.7603 7.55602C79.5923 7.18401 79.3463 6.91401 79.0223 6.74601C78.7103 6.57801 78.3443 6.49401 77.9243 6.49401C77.3843 6.49401 76.9223 6.61401 76.5383 6.85401C76.1663 7.09402 75.8843 7.41802 75.6923 7.82601C75.5003 8.23402 75.4043 8.69001 75.4043 9.19401V13.982Z" fill="#0C0F18"/>
<path d="M86.1898 14.216C85.2538 14.216 84.5158 13.97 83.9758 13.478C83.4478 12.986 83.1838 12.344 83.1838 11.552C83.1838 10.748 83.4718 10.106 84.0478 9.62601C84.6238 9.13401 85.4278 8.84602 86.4598 8.76202L89.2318 8.54602V8.29402C89.2318 7.80202 89.1418 7.41202 88.9618 7.12401C88.7818 6.82402 88.5358 6.61401 88.2238 6.49401C87.9118 6.36201 87.5578 6.29601 87.1618 6.29601C86.4538 6.29601 85.9018 6.44601 85.5058 6.74601C85.1218 7.03401 84.9298 7.44801 84.9298 7.98801H83.4538C83.4538 7.37601 83.6098 6.84201 83.9218 6.38601C84.2338 5.93001 84.6718 5.57601 85.2358 5.32401C85.8118 5.07201 86.4778 4.94601 87.2338 4.94601C87.9658 4.94601 88.6018 5.07801 89.1418 5.34201C89.6938 5.59402 90.1198 5.98402 90.4198 6.51202C90.7318 7.02802 90.8878 7.68202 90.8878 8.47402V14H89.4478L89.2678 12.578C89.0398 13.082 88.6438 13.484 88.0798 13.784C87.5278 14.072 86.8978 14.216 86.1898 14.216ZM86.6758 12.902C87.4798 12.902 88.1098 12.662 88.5658 12.182C89.0218 11.69 89.2498 11.03 89.2498 10.202V9.73401L86.9998 9.91401C86.2558 9.98601 85.7158 10.16 85.3798 10.436C85.0558 10.712 84.8938 11.066 84.8938 11.498C84.8938 11.966 85.0498 12.32 85.3618 12.56C85.6858 12.788 86.1238 12.902 86.6758 12.902Z" fill="#0C0F18"/>
<path d="M92.2231 9.37401C92.2231 8.54601 92.3911 7.80202 92.7271 7.14201C93.0631 6.47002 93.5431 5.93602 94.1671 5.54001C94.7911 5.14401 95.5291 4.94601 96.3811 4.94601C97.1731 4.94601 97.8511 5.13802 98.4151 5.52202C98.9791 5.89401 99.3811 6.41601 99.6211 7.08802L99.4051 7.32201L99.5851 5.19801H101.097V13.64C101.097 14.564 100.917 15.362 100.557 16.034C100.197 16.718 99.6871 17.246 99.0271 17.618C98.3671 17.99 97.5871 18.176 96.6871 18.176C95.4871 18.176 94.5031 17.858 93.7351 17.222C92.9671 16.586 92.4991 15.71 92.3311 14.594H94.0231C94.1311 15.242 94.4191 15.746 94.8871 16.106C95.3551 16.466 95.9551 16.646 96.6871 16.646C97.5151 16.646 98.1751 16.394 98.6671 15.89C99.1711 15.398 99.4231 14.732 99.4231 13.892V11.408L99.6391 11.642C99.4111 12.302 98.9971 12.824 98.3971 13.208C97.7971 13.58 97.1011 13.766 96.3091 13.766C95.4691 13.766 94.7431 13.574 94.1311 13.19C93.5191 12.794 93.0451 12.266 92.7091 11.606C92.3851 10.946 92.2231 10.202 92.2231 9.37401ZM93.9151 9.33802C93.9151 9.89002 94.0231 10.388 94.2391 10.832C94.4671 11.276 94.7791 11.63 95.1751 11.894C95.5831 12.158 96.0571 12.29 96.5971 12.29C97.1731 12.29 97.6651 12.164 98.0731 11.912C98.4811 11.66 98.7931 11.312 99.0091 10.868C99.2371 10.424 99.3511 9.91402 99.3511 9.33802C99.3511 8.76202 99.2431 8.25802 99.0271 7.82601C98.8111 7.39402 98.4991 7.05201 98.0911 6.80001C97.6831 6.54801 97.1911 6.42201 96.6151 6.42201C96.0511 6.42201 95.5651 6.55401 95.1571 6.81802C94.7611 7.08202 94.4551 7.43602 94.2391 7.88002C94.0231 8.31202 93.9151 8.79802 93.9151 9.33802Z" fill="#0C0F18"/>
<path d="M106.887 14.216C106.035 14.216 105.279 14.024 104.619 13.64C103.959 13.244 103.443 12.704 103.071 12.02C102.699 11.324 102.513 10.52 102.513 9.60802C102.513 8.68402 102.693 7.87402 103.053 7.17802C103.425 6.48202 103.929 5.93602 104.565 5.54001C105.213 5.14401 105.963 4.94601 106.815 4.94601C107.655 4.94601 108.381 5.12601 108.993 5.48601C109.617 5.84601 110.097 6.35002 110.433 6.99801C110.781 7.64602 110.955 8.40801 110.955 9.28401V9.91401L103.413 9.93202L103.449 8.79802H109.263C109.263 8.06602 109.041 7.47801 108.597 7.03401C108.153 6.59001 107.559 6.36801 106.815 6.36801C106.251 6.36801 105.765 6.49401 105.357 6.74601C104.961 6.98601 104.655 7.34602 104.439 7.82601C104.235 8.29402 104.133 8.85801 104.133 9.51801C104.133 10.574 104.373 11.39 104.853 11.966C105.333 12.53 106.023 12.812 106.923 12.812C107.583 12.812 108.123 12.68 108.543 12.416C108.963 12.152 109.245 11.768 109.389 11.264H110.973C110.757 12.2 110.295 12.926 109.587 13.442C108.879 13.958 107.979 14.216 106.887 14.216Z" fill="#0C0F18"/>
<path d="M114.087 14H112.395V5.19801H113.925L114.105 6.54801C114.381 6.04401 114.777 5.65401 115.293 5.37801C115.821 5.09001 116.397 4.94601 117.021 4.94601C118.173 4.94601 119.025 5.27602 119.577 5.93602C120.129 6.59602 120.405 7.49002 120.405 8.61801V14H118.713V8.99601C118.713 8.10801 118.521 7.47201 118.137 7.08802C117.753 6.69201 117.237 6.49401 116.589 6.49401C115.797 6.49401 115.179 6.75201 114.735 7.26801C114.303 7.78401 114.087 8.47402 114.087 9.33802V14Z" fill="#0C0F18"/>
<path d="M2 6C2 2.68629 4.68629 0 8 0H18V10C18 13.3137 15.3137 16 12 16H2V6Z" fill="#5888A6"/>
<path d="M0 8C0 4.68629 2.68629 2 6 2H16V12C16 15.3137 13.3137 18 10 18H0V8Z" fill="#C4EAF2"/>
</svg>
